# xmcd
#
# Track frame offsets:
#	150
#	24043
#	45683
#	62492
#	83521
#	102832
#	119517
#	136725
#	154678
#	174062
#
# Disc length: 2591 seconds
#
# Revision: 0
# Processed by: cddbd v1.5.2PL0 Copyright (c) Steve Scherf et al.
# Submitted via: dBpowerAMP V4.0
#
DISCID=670a1d0a
DTITLE=Greg Barnhill - No Chaser
DYEAR=2002
DGENRE=R&B
TTITLE0=Watchin' The River Go By
TTITLE1=Walkaway Joe
TTITLE2=The Waiting Game
TTITLE3=Remember When
TTITLE4=I Will Be There
TTITLE5=Fly
TTITLE6=I've Been In Love Too Long
TTITLE7=Play Me On
TTITLE8=You Put The Hurt On Me
TTITLE9=House OF Love
EXTD=
EXTT0=
EXTT1=
EXTT2=
EXTT3=
EXTT4=
EXTT5=
EXTT6=
EXTT7=
EXTT8=
EXTT9=
PLAYORDER=
